<?xml version="1.0" ?>

<!DOCTYPE svg  PUBLIC '-//W3C//DTD SVG 1.1//EN'  'http://www.w3.org/Graphics/SVG/1.1/DTD/svg11.dtd'>

<!-- Uploaded to: SVG Repo, www.svgrepo.com, Generator: SVG Repo Mixer Tools -->
<svg fill="#000000" width="32px" height="32px" viewBox="0 0 32 32" style="fill-rule:evenodd;clip-rule:evenodd;stroke-linejoin:round;stroke-miterlimit:2;" version="1.1" xml:space="preserve" xmlns="http://www.w3.org/2000/svg" xmlns:serif="http://www.serif.com/" xmlns:xlink="http://www.w3.org/1999/xlink">

<g id="Icon">

<path d="M28.002,7c0,-0.796 -0.316,-1.559 -0.878,-2.121c-0.563,-0.563 -1.326,-0.879 -2.122,-0.879c-4.184,0 -13.818,-0 -18.002,0c-0.796,-0 -1.559,0.316 -2.121,0.879c-0.563,0.562 -0.879,1.325 -0.879,2.121c-0,4.184 -0,13.816 -0,18c-0,0.796 0.316,1.559 0.879,2.121c0.562,0.563 1.325,0.879 2.121,0.879c4.184,0 13.818,0 18.002,0c0.796,0 1.559,-0.316 2.122,-0.879c0.562,-0.562 0.878,-1.325 0.878,-2.121l0,-18Zm-19.002,-1l-2,-0c-0.265,-0 -0.52,0.105 -0.707,0.293c-0.188,0.187 -0.293,0.442 -0.293,0.707l-0,18c-0,0.265 0.105,0.52 0.293,0.707c0.187,0.188 0.442,0.293 0.707,0.293l3.995,0l-0.039,-8l-0.956,0c-0.552,0 -1,-0.448 -1,-1l-0,-11Zm7.997,-0l-1.997,-0l0,11c-0,0.552 -0.448,1 -1,1l-1.044,0l0.039,8l6.005,0l-0.002,-8l-1.001,0c-0.552,0 -1,-0.448 -1,-1l0,-11Zm6,-0l0,11c0,0.552 -0.447,1 -1,1l-0.999,0l0.002,8l4.002,0c0.266,0 0.52,-0.105 0.708,-0.293c0.187,-0.187 0.292,-0.442 0.292,-0.707l0,-18c0,-0.265 -0.105,-0.52 -0.292,-0.707c-0.188,-0.188 -0.442,-0.293 -0.708,-0.293l-2.005,-0Zm-2,-0l-2,-0l0,10c0,0 2,0 2,-0l0,-10Zm-7.997,-0l-2,-0l-0,10c-0,0 2,0 2,-0l0,-10Z"/>

</g>

</svg>